<svg xmlns="http://www.w3.org/2000/svg" version="1.1" xmlns:xlink="http://www.w3.org/1999/xlink" xmlns:svgjs="http://svgjs.dev/svgjs" width="1440" height="560" preserveAspectRatio="none" viewBox="0 0 1440 560"><g mask="url(&quot;#SvgjsMask1236&quot;)" fill="none"><rect width="1440" height="560" x="0" y="0" fill="url(&quot;#SvgjsRadialGradient1237&quot;)"></rect><path d="M1440 0L778.65 0L1440 27.38z" fill="rgba(255, 255, 255, .1)"></path><path d="M778.65 0L1440 27.38L1440 83.64L523.67 0z" fill="rgba(255, 255, 255, .075)"></path><path d="M523.67 0L1440 83.64L1440 169.05L486.15 0z" fill="rgba(255, 255, 255, .05)"></path><path d="M486.15 0L1440 169.05L1440 416.36L422.04999999999995 0z" fill="rgba(255, 255, 255, .025)"></path><path d="M0 560L156.61 560L0 474.75z" fill="rgba(0, 0, 0, .1)"></path><path d="M0 474.75L156.61 560L631.08 560L0 270.55z" fill="rgba(0, 0, 0, .075)"></path><path d="M0 270.55L631.08 560L1069.88 560L0 139.98000000000002z" fill="rgba(0, 0, 0, .05)"></path><path d="M0 139.98000000000002L1069.88 560L1323.42 560L0 96.61000000000001z" fill="rgba(0, 0, 0, .025)"></path></g><defs><mask id="SvgjsMask1236"><rect width="1440" height="560" fill="#ffffff"></rect></mask><radialGradient cx="50%" cy="50%" r="772.53" gradientUnits="userSpaceOnUse" id="SvgjsRadialGradient1237"><stop stop-color="rgba(14, 42, 71, 1)" offset="0"></stop><stop stop-color="rgba(232, 232, 242, 1)" offset="0"></stop></radialGradient></defs></svg>